HIERARCHY
ROOT Hips
{
	OFFSET 0.000000 0.000000 0.000000
	CHANNELS 6 Xposition Yposition Zposition Xrotation Yrotation Zrotation
	JOINT LeftUpLeg_virtual
	{
		OFFSET 0.000000 0.000000 0.000000
		CHANNELS 3 Xrotation Yrotation Zrotation
		JOINT LeftUpLeg
		{
			OFFSET 11.394100 -6.187798 -0.413800
			CHANNELS 3 Xrotation Yrotation Zrotation
			JOINT LeftLeg
			{
				OFFSET 0.430247 -32.302673 3.732800
				CHANNELS 3 Xrotation Yrotation Zrotation
				JOINT LeftFoot
				{
					OFFSET -0.430247 -48.264931 -6.423300
					CHANNELS 3 Xrotation Yrotation Zrotation
					JOINT LeftToeBase
					{
						OFFSET 4.230900 -16.068199 23.438400
						CHANNELS 3 Xrotation Yrotation Zrotation
						JOINT LeftToe_End
						{
							OFFSET 4.510700 0.695400 19.974600
							CHANNELS 3 Xrotation Yrotation Zrotation
							End Site
							{
								OFFSET 0 0 0
							}
						}
					}
				}
			}
		}
	}
	JOINT RightUpLeg_virtual
	{
		OFFSET 0.000000 0.000000 0.000000
		CHANNELS 3 Xrotation Yrotation Zrotation
		JOINT RightUpLeg
		{
			OFFSET -11.333700 -6.187798 -0.413800
			CHANNELS 3 Xrotation Yrotation Zrotation
			JOINT RightLeg
			{
				OFFSET -0.430392 -32.302628 3.733000
				CHANNELS 3 Xrotation Yrotation Zrotation
				JOINT RightFoot
				{
					OFFSET 0.430392 -48.264973 -6.423500
					CHANNELS 3 Xrotation Yrotation Zrotation
					JOINT RightToeBase
					{
						OFFSET -4.230900 -16.068199 23.438400
						CHANNELS 3 Xrotation Yrotation Zrotation
						JOINT RightToe_End
						{
							OFFSET -4.510700 0.695400 19.974600
							CHANNELS 3 Xrotation Yrotation Zrotation
							End Site
							{
								OFFSET 0 0 0
							}
						}
					}
				}
			}
		}
	}
	JOINT Spine_virtual
	{
		OFFSET 0.000000 0.000000 0.000000
		CHANNELS 3 Xrotation Yrotation Zrotation
		JOINT Spine
		{
			OFFSET -0.002400 12.777504 0.315300
			CHANNELS 3 Xrotation Yrotation Zrotation
			JOINT Spine1
			{
				OFFSET -0.002067 5.816869 0.032633
				CHANNELS 3 Xrotation Yrotation Zrotation
				JOINT Spine1_split
				{
					OFFSET -0.002067 5.816869 0.032633
					CHANNELS 3 Xrotation Yrotation Zrotation
					JOINT Spine2
					{
						OFFSET -0.002067 5.816869 0.032633
						CHANNELS 3 Xrotation Yrotation Zrotation
						JOINT Neck_virtual
						{
							OFFSET 0.000000 0.000000 0.000000
							CHANNELS 3 Xrotation Yrotation Zrotation
							JOINT Neck
							{
								OFFSET -0.003700 21.199493 -0.826900
								CHANNELS 3 Xrotation Yrotation Zrotation
								JOINT Head
								{
									OFFSET 0.000000 20.442200 4.834800
									CHANNELS 3 Xrotation Yrotation Zrotation
									JOINT HeadTop_End
									{
										OFFSET 0.000000 34.668396 4.968400
										CHANNELS 3 Xrotation Yrotation Zrotation
										End Site
										{
											OFFSET 0 0 0
										}
									}
								}
							}
						}
						JOINT LeftShoulder_virtual
						{
							OFFSET 0.000000 0.000000 0.000000
							CHANNELS 3 Xrotation Yrotation Zrotation
							JOINT LeftShoulder
							{
								OFFSET 3.288150 8.794197 -1.372250
								CHANNELS 3 Xrotation Yrotation Zrotation
								JOINT LeftShoulder_split
								{
									OFFSET 3.288150 8.794197 -1.372250
									CHANNELS 3 Xrotation Yrotation Zrotation
									JOINT LeftArm
									{
										OFFSET 11.953299 -2.279007 -0.146200
										CHANNELS 3 Xrotation Yrotation Zrotation
										JOINT LeftForeArm
										{
											OFFSET 18.448900 0.000000 0.000000
											CHANNELS 3 Xrotation Yrotation Zrotation
											JOINT LeftHand
											{
												OFFSET 29.527798 0.000000 0.000000
												CHANNELS 3 Xrotation Yrotation Zrotation
												End Site
												{
													OFFSET 0 0 0
												}
											}
										}
									}
								}
							}
						}
						JOINT RightShoulder_virtual
						{
							OFFSET 0.000000 0.000000 0.000000
							CHANNELS 3 Xrotation Yrotation Zrotation
							JOINT RightShoulder
							{
								OFFSET -3.249400 8.794197 -1.372250
								CHANNELS 3 Xrotation Yrotation Zrotation
								JOINT RightShoulder_split
								{
									OFFSET -3.249400 8.794197 -1.372250
									CHANNELS 3 Xrotation Yrotation Zrotation
									JOINT RightArm
									{
										OFFSET -11.953299 -2.279007 -0.146200
										CHANNELS 3 Xrotation Yrotation Zrotation
										JOINT RightForeArm
										{
											OFFSET -18.448900 0.000000 0.000000
											CHANNELS 3 Xrotation Yrotation Zrotation
											JOINT RightHand
											{
												OFFSET -29.527802 0.000000 0.000000
												CHANNELS 3 Xrotation Yrotation Zrotation
												End Site
												{
													OFFSET 0 0 0
												}
											}
										}
									}
								}
							}
						}
					}
				}
			}
		}
	}
}
MOTION
Frames: 11
Frame Time: 0.03333333
-0.065678 85.303528 -0.139524 0.000000 0.000000 0.000000 -5.398870 -46.271362 -0.212056 -38.933403 5.287479 17.886099 58.809650 -5.660343 4.384342 -17.445937 -8.502693 -15.880140 -1.594033 0.000010 -0.000001 0.000000 0.000000 0.000000 -5.398870 -46.271362 -0.212056 -29.905536 -7.026572 -29.148625 58.364130 -9.468450 -7.709949 -19.429289 -5.380458 23.113891 -0.013002 0.000005 0.000000 0.000000 0.000000 0.000000 -5.398870 -46.271362 -0.212056 9.456608 7.225501 -1.652087 2.187716 0.989899 -0.915631 0.000000 0.000000 0.000000 0.000000 0.000000 0.000000 2.202829 0.982769 -0.894152 0.084651 13.220558 4.538680 8.920926 20.138147 -4.130235 0.000000 0.000000 0.000000 2.202829 0.982769 -0.894152 1.117175 3.546354 -8.633310 0.000000 0.000000 0.000000 -53.487006 4.935510 -51.502980 179.999882 -73.641918 179.999896 0.000000 0.000000 0.000000 2.202829 0.982769 -0.894152 3.036128 13.027198 -5.371408 0.000000 0.000000 0.000000 -48.713719 27.172823 83.457084 -179.999896 74.011711 179.999882 0.000000 0.000000 0.000000 
0.149249 84.522064 1.003740 0.000000 0.000000 0.000000 -4.839195 -46.923249 0.173821 -40.290750 5.029349 17.552891 61.664225 -5.162070 4.196097 -18.708195 -7.691762 -15.271919 -1.953560 -0.000002 0.000008 0.000000 0.000000 0.000000 -4.839195 -46.923249 0.173821 -30.903765 -6.447320 -30.227689 59.394929 -7.757603 -7.708073 -19.630066 -6.139139 23.428508 -0.009082 -0.000010 -0.000003 0.000000 0.000000 0.000000 -4.839195 -46.923249 0.173821 9.965417 7.492565 -2.195616 1.916819 1.031764 -0.894297 0.000000 0.000000 0.000000 0.000000 0.000000 0.000000 1.931405 1.025006 -0.876845 0.148177 13.275043 4.803506 8.434755 20.259434 -3.299770 0.000000 0.000000 0.000000 1.931405 1.025006 -0.876845 1.110769 3.630395 -8.655379 0.000000 0.000000 0.000000 -52.841772 5.112484 -51.141656 -179.999841 -73.431965 -179.999827 0.000000 0.000000 0.000000 1.931405 1.025006 -0.876845 3.169173 13.274901 -5.296748 0.000000 0.000000 0.000000 -48.735756 27.444506 83.446176 180.000005 74.154257 179.999991 0.000000 0.000000 0.000000 
0.445435 83.370605 2.392935 0.000000 0.000000 0.000000 -4.760899 -47.873035 0.323727 -42.407460 4.561065 17.359020 66.143217 -4.264050 4.041134 -19.672089 -7.725933 -15.046765 -3.282872 -0.000029 0.000004 0.000000 0.000000 0.000000 -4.760899 -47.873035 0.323727 -32.112469 -5.687918 -31.646155 60.973973 -5.429838 -8.112390 -20.010610 -7.029115 23.895775 0.049241 -0.000026 0.068751 0.000000 0.000000 0.000000 -4.760899 -47.873035 0.323727 10.886510 7.744109 -2.361368 1.532801 1.076089 -0.997166 0.000000 0.000000 0.000000 0.000000 0.000000 0.000000 1.549265 1.064460 -0.986854 0.226162 13.411169 5.018147 7.791678 20.556339 -2.405648 0.000000 0.000000 0.000000 1.549265 1.064460 -0.986854 1.121903 3.790807 -8.776298 0.000000 0.000000 0.000000 -51.604074 5.785265 -50.502897 -179.999937 -72.464824 -179.999950 0.000000 0.000000 0.000000 1.549265 1.064460 -0.986854 3.247806 13.568180 -5.304377 0.000000 0.000000 0.000000 -48.562085 27.955834 83.361264 -179.999950 74.257994 179.999950 0.000000 0.000000 0.000000 
0.902280 81.769836 4.169672 0.000000 0.000000 0.000000 -5.294395 -48.999924 0.097254 -46.147579 3.265361 17.452950 73.275977 -3.439109 3.998188 -19.667473 -8.902386 -16.693974 -5.109297 -0.008122 0.761259 0.000000 0.000000 0.000000 -5.294395 -48.999924 0.097254 -33.321378 -4.714449 -33.487342 63.010804 -2.496421 -8.978504 -20.504286 -8.082743 24.690581 0.108034 -0.000141 0.142442 0.000000 0.000000 0.000000 -5.294395 -48.999924 0.097254 12.520931 8.081148 -2.046816 0.995853 1.138772 -1.199805 0.000000 0.000000 0.000000 0.000000 0.000000 0.000000 1.016578 1.114866 -1.201558 0.302731 13.587385 5.199545 7.304530 20.933608 -1.731037 0.000000 0.000000 0.000000 1.016578 1.114866 -1.201558 1.177509 3.931809 -9.010046 0.000000 0.000000 0.000000 -49.846314 7.032379 -49.753625 -179.999978 -71.166978 -179.999978 0.000000 0.000000 0.000000 1.016578 1.114866 -1.201558 3.139969 13.746668 -5.470686 0.000000 0.000000 0.000000 -48.025427 28.850518 83.319893 -179.999923 74.486047 179.999950 0.000000 0.000000 0.000000 
1.561923 79.784882 6.397581 0.000000 0.000000 0.000000 -6.277726 -50.335885 -0.449148 -51.481625 1.034112 18.066487 82.251515 -3.094769 3.813418 -17.946447 -12.078734 -19.583995 -8.333742 -0.444558 5.511438 0.000000 0.000000 0.000000 -6.277726 -50.335885 -0.449148 -34.488214 -3.415669 -35.866041 65.225786 0.949795 -10.042355 -20.862159 -9.194142 25.814784 0.131105 -0.000222 0.171382 0.000000 0.000000 0.000000 -6.277726 -50.335885 -0.449148 14.449600 8.517682 -1.361597 0.424836 1.216736 -1.428606 0.000000 0.000000 0.000000 0.000000 0.000000 0.000000 0.450686 1.174181 -1.444917 0.205575 13.834948 5.409457 7.350726 21.656872 -1.627158 0.000000 0.000000 0.000000 0.450686 1.174181 -1.444917 1.261340 4.095658 -9.344289 0.000000 0.000000 0.000000 -47.712194 8.648736 -48.870389 -179.999937 -69.606260 -179.999937 0.000000 0.000000 0.000000 0.450686 1.174181 -1.444917 2.992455 13.783369 -5.631406 0.000000 0.000000 0.000000 -47.719117 30.227938 83.551341 -179.999882 75.092999 179.999909 0.000000 0.000000 0.000000 
2.429938 77.706161 9.170538 0.000000 0.000000 0.000000 -7.157637 -52.387175 -0.924991 -57.269924 -1.873558 19.743208 90.525073 -3.700998 3.086767 -14.341261 -16.204352 -22.400533 -12.661697 -1.892299 9.181510 0.000000 0.000000 0.000000 -7.157637 -52.387175 -0.924991 -35.680543 -1.222614 -39.308989 66.906621 5.197959 -10.051833 -20.631338 -9.824352 26.884376 0.115177 -0.000122 0.151402 0.000000 0.000000 0.000000 -7.157637 -52.387175 -0.924991 16.251093 8.771365 -0.599688 -0.146076 1.269163 -1.694879 0.000000 0.000000 0.000000 0.000000 0.000000 0.000000 -0.114768 1.203170 -1.725555 -0.234662 14.288827 5.546312 8.052023 23.346348 -2.569391 0.000000 0.000000 0.000000 -0.114768 1.203170 -1.725555 1.258249 4.648338 -9.768067 0.000000 0.000000 0.000000 -44.491197 10.801626 -47.244063 -180.000005 -66.706838 179.999991 0.000000 0.000000 0.000000 -0.114768 1.203170 -1.725555 2.956454 13.734553 -5.656083 0.000000 0.000000 0.000000 -48.042495 32.407625 84.409916 179.999991 76.127103 -179.999991 0.000000 0.000000 0.000000 
3.351588 75.954155 12.297250 0.000000 0.000000 0.000000 -7.358936 -55.099983 -0.811404 -61.607774 -4.733061 22.806623 95.057163 -4.777296 2.134886 -9.803937 -18.578577 -23.982039 -16.203861 -3.498779 10.605502 0.000000 0.000000 0.000000 -7.358936 -55.099983 -0.811404 -36.903553 1.273989 -42.968706 66.486339 6.061670 -10.048453 -19.355559 -6.696860 29.738295 0.086838 -0.000099 0.115799 0.000000 0.000000 0.000000 -7.358936 -55.099983 -0.811404 17.684282 8.298172 -0.466384 -0.685954 1.220954 -1.871342 0.000000 0.000000 0.000000 0.000000 0.000000 0.000000 -0.653375 1.137083 -1.911023 -1.101320 15.078331 5.426785 9.040396 26.423120 -4.802587 0.000000 0.000000 0.000000 -0.653375 1.137083 -1.911023 0.985290 5.876793 -10.065042 0.000000 0.000000 0.000000 -40.552390 13.547007 -44.357161 -179.999950 -62.549541 -179.999978 0.000000 0.000000 0.000000 -0.653375 1.137083 -1.911023 2.803018 13.517539 -5.753012 0.000000 0.000000 0.000000 -48.960107 35.579671 86.429009 179.999773 77.363743 -179.999773 0.000000 0.000000 0.000000 
4.238862 74.629326 15.663501 0.000000 0.000000 0.000000 -6.638896 -58.024800 0.045007 -63.234301 -6.950499 26.994028 94.678668 -5.618555 1.600080 -5.641682 -17.505409 -24.190875 -18.662583 -2.947762 7.810859 0.000000 0.000000 0.000000 -6.638896 -58.024800 0.045007 -38.598533 3.934526 -45.694061 66.165320 6.538471 -10.196345 -18.585582 -3.334999 29.989974 -0.588236 0.000019 -0.000004 0.000000 0.000000 0.000000 -6.638896 -58.024800 0.045007 18.459425 6.665379 -1.410642 -1.037304 1.006889 -1.722459 0.000000 0.000000 0.000000 0.000000 0.000000 0.000000 -1.013129 0.924163 -1.758024 -2.238227 16.191962 4.930494 9.573747 30.678662 -7.905312 0.000000 0.000000 0.000000 -1.013129 0.924163 -1.758024 0.469198 7.446493 -9.919398 0.000000 0.000000 0.000000 -38.417840 16.692178 -40.406484 -179.999991 -59.752011 -179.999991 0.000000 0.000000 0.000000 -1.013129 0.924163 -1.758024 2.131210 12.869793 -6.310851 0.000000 0.000000 0.000000 -49.752867 39.649426 89.507573 -179.999800 78.481763 179.999814 0.000000 0.000000 0.000000 
5.041495 73.904945 19.302986 0.000000 0.000000 0.000000 -5.332360 -60.482937 1.078988 -62.002982 -8.012118 31.713408 89.299860 -6.411896 1.623371 -2.020546 -14.071621 -22.189388 -18.411796 -0.406426 1.071512 0.000000 0.000000 0.000000 -5.332360 -60.482937 1.078988 -38.634723 6.564321 -47.373475 64.696003 7.646548 -10.256157 -16.286665 -1.013390 30.958413 -4.920210 0.000017 0.000007 0.000000 0.000000 0.000000 -5.332360 -60.482937 1.078988 18.156617 3.963714 -3.157122 -0.975272 0.626121 -1.158381 0.000000 0.000000 0.000000 0.000000 0.000000 0.000000 -0.965145 0.567659 -1.174795 -3.193920 17.393060 4.160093 9.253136 35.282216 -10.702776 0.000000 0.000000 0.000000 -0.965145 0.567659 -1.174795 0.022599 8.488067 -9.192624 0.000000 0.000000 0.000000 -39.961753 19.100136 -37.496103 -179.999964 -62.577619 -179.999950 0.000000 0.000000 0.000000 -0.965145 0.567659 -1.174795 1.203971 11.593524 -7.171537 0.000000 0.000000 0.000000 -49.358000 44.500291 91.846940 -179.999486 79.146852 179.999472 0.000000 0.000000 0.000000 
5.869846 73.660927 23.633615 0.000000 0.000000 0.000000 -4.434698 -61.801867 0.890589 -59.626636 -7.947053 36.027752 82.432255 -5.896777 2.561248 -4.687053 -10.537265 -16.343121 -3.769163 1.184527 -10.060487 0.000000 0.000000 0.000000 -4.434698 -61.801867 0.890589 -36.491116 7.454935 -48.269179 61.221472 7.257978 -10.325215 -14.153725 0.889760 29.452609 -9.552187 -0.000000 0.000009 0.000000 0.000000 0.000000 -4.434698 -61.801867 0.890589 16.588535 0.798798 -4.434883 -0.461932 0.156494 -0.331705 0.000000 0.000000 0.000000 0.000000 0.000000 0.000000 -0.460204 0.134348 -0.324599 -3.491584 18.340137 3.384890 8.449085 39.183334 -12.054440 0.000000 0.000000 0.000000 -0.460204 0.134348 -0.324599 -0.182260 8.432569 -7.954841 0.000000 0.000000 0.000000 -44.780158 19.426404 -36.627443 179.999896 -74.338748 179.999882 0.000000 0.000000 0.000000 -0.460204 0.134348 -0.324599 0.770460 10.003822 -7.520489 0.000000 0.000000 0.000000 -45.384367 50.045916 89.632730 -179.999882 79.056141 179.999896 0.000000 0.000000 0.000000 
6.752318 73.357903 28.809851 0.000000 0.000000 0.000000 -4.463980 -61.413892 -0.854493 -57.235455 -7.299660 39.447300 73.280799 -5.281579 4.182682 -6.831028 -10.036425 -13.560894 1.169905 0.241331 -5.985557 0.000000 0.000000 0.000000 -4.463980 -61.413892 -0.854493 -33.297568 7.674282 -48.642971 58.217411 6.269100 -10.455672 -9.693897 1.935333 27.687517 -11.413518 -0.000013 -0.000010 0.000000 0.000000 0.000000 -4.463980 -61.413892 -0.854493 14.133835 -2.529518 -4.710454 0.339028 -0.339473 0.465066 0.000000 0.000000 0.000000 0.000000 0.000000 0.000000 0.344091 -0.325052 0.486182 -3.088959 18.845397 2.802833 7.637103 41.723464 -11.877112 0.000000 0.000000 0.000000 0.344091 -0.325052 0.486182 -0.306492 7.643637 -6.569015 0.000000 0.000000 0.000000 -52.256135 17.110145 -36.409648 -0.000769 -84.233670 -0.000772 0.000000 0.000000 0.000000 0.344091 -0.325052 0.486182 0.857113 8.599277 -7.102887 0.000000 0.000000 0.000000 -33.677221 54.990929 79.051066 -179.999882 77.552686 179.999896 0.000000 0.000000 0.000000 
